<svg width="50" height="51" viewBox="0 0 50 51" fill="none" xmlns="http://www.w3.org/2000/svg">
<path d="M27.1751 0.202148H22.948C22.5723 0.202148 22.3844 0.390018 22.3844 0.765758V22.8874H1.39163C1.01589 22.8874 0.828018 23.0753 0.828018 23.451V27.6781C0.828018 28.0539 1.01589 28.2417 1.39163 28.2417H22.3844V50.3634C22.3844 50.7391 22.5723 50.927 22.948 50.927H27.1751C27.5509 50.927 27.7387 50.7391 27.7387 50.3634V28.2417H48.7348C49.1106 28.2417 49.2984 28.0539 49.2984 27.6781V23.451C49.2984 23.0753 49.1106 22.8874 48.7348 22.8874H27.7387V0.765758C27.7387 0.390018 27.5509 0.202148 27.1751 0.202148Z" fill="#8C8C8C"/>
</svg>
