<svg width="18" height="18" viewBox="0 0 18 18" fill="none" xmlns="http://www.w3.org/2000/svg">
<path d="M10.0399 8.99833L15.3134 2.71239C15.4018 2.60792 15.3274 2.44922 15.1908 2.44922H13.5877C13.4933 2.44922 13.4029 2.49141 13.3406 2.56373L8.99129 7.74877L4.64196 2.56373C4.58169 2.49141 4.49129 2.44922 4.39486 2.44922H2.79173C2.65513 2.44922 2.5808 2.60792 2.66919 2.71239L7.94263 8.99833L2.66919 15.2843C2.64939 15.3075 2.63669 15.336 2.63259 15.3663C2.62849 15.3966 2.63317 15.4274 2.64607 15.4551C2.65898 15.4829 2.67956 15.5063 2.70538 15.5226C2.7312 15.539 2.76117 15.5476 2.79173 15.5474H4.39486C4.48928 15.5474 4.57968 15.5052 4.64196 15.4329L8.99129 10.2479L13.3406 15.4329C13.4009 15.5052 13.4913 15.5474 13.5877 15.5474H15.1908C15.3274 15.5474 15.4018 15.3887 15.3134 15.2843L10.0399 8.99833Z" fill="#454545"/>
</svg>
