<svg width="60" height="60" viewBox="0 0 60 60" fill="none" xmlns="http://www.w3.org/2000/svg">
<path d="M40.9569 20.6818H38.2088C37.6112 20.6818 37.0428 20.9689 36.6912 21.4611L27.4803 34.2345L23.3084 28.4454C22.9569 27.9591 22.3944 27.6661 21.7908 27.6661H19.0428C18.6619 27.6661 18.4393 28.0997 18.6619 28.4103L25.9627 38.5353C26.1352 38.776 26.3626 38.9721 26.626 39.1075C26.8894 39.2428 27.1812 39.3134 27.4774 39.3134C27.7735 39.3134 28.0654 39.2428 28.3288 39.1075C28.5922 38.9721 28.8195 38.776 28.992 38.5353L41.3319 21.4259C41.5604 21.1154 41.3377 20.6818 40.9569 20.6818Z" fill="#449E3C"/>
<path d="M30 3.75C15.5039 3.75 3.75 15.5039 3.75 30C3.75 44.4961 15.5039 56.25 30 56.25C44.4961 56.25 56.25 44.4961 56.25 30C56.25 15.5039 44.4961 3.75 30 3.75ZM30 51.7969C17.9648 51.7969 8.20312 42.0352 8.20312 30C8.20312 17.9648 17.9648 8.20312 30 8.20312C42.0352 8.20312 51.7969 17.9648 51.7969 30C51.7969 42.0352 42.0352 51.7969 30 51.7969Z" fill="#449E3C"/>
</svg>
