<svg width="18" height="18" viewBox="0 0 18 18" fill="none" xmlns="http://www.w3.org/2000/svg">
<path d="M10.0404 8.99918L15.3139 2.71324C15.4023 2.60878 15.3279 2.45007 15.1913 2.45007H13.5882C13.4938 2.45007 13.4034 2.49226 13.3411 2.56458L8.99178 7.74963L4.64245 2.56458C4.58218 2.49226 4.49178 2.45007 4.39535 2.45007H2.79222C2.65562 2.45007 2.58129 2.60878 2.66968 2.71324L7.94312 8.99918L2.66968 15.2851C2.64988 15.3084 2.63717 15.3369 2.63308 15.3672C2.62898 15.3975 2.63366 15.4283 2.64656 15.456C2.65946 15.4837 2.68005 15.5071 2.70587 15.5235C2.73169 15.5398 2.76166 15.5485 2.79222 15.5483H4.39535C4.48977 15.5483 4.58017 15.5061 4.64245 15.4338L8.99178 10.2487L13.3411 15.4338C13.4014 15.5061 13.4918 15.5483 13.5882 15.5483H15.1913C15.3279 15.5483 15.4023 15.3896 15.3139 15.2851L10.0404 8.99918Z" fill="#454545"/>
</svg>
