<svg width="33" height="32" viewBox="0 0 33 32" fill="none" xmlns="http://www.w3.org/2000/svg">
<path fill-rule="evenodd" clip-rule="evenodd" d="M32.7778 16C32.7778 7.16413 25.6136 0 16.7778 0C7.94197 0 0.777832 7.16413 0.777832 16C0.777832 23.9853 6.62799 30.6049 14.2781 31.8067V20.6261H10.2145V16H14.2781V12.4742C14.2781 8.46456 16.6676 6.24829 20.3216 6.24829C22.0721 6.24829 23.9036 6.56102 23.9036 6.56102V10.4986H21.8854C19.8987 10.4986 19.2776 11.7317 19.2776 12.9984V15.9999H23.7145L23.0058 20.626H19.2775V31.8064C26.9276 30.6071 32.7776 23.9876 32.7776 15.9999L32.7778 16Z" fill="#1977F3"/>
<path fill-rule="evenodd" clip-rule="evenodd" d="M23.0058 20.626L23.7147 15.9999H19.2777V12.9984C19.2777 11.7339 19.8964 10.4987 21.8855 10.4987H23.9038V6.56105C23.9038 6.56105 22.0724 6.24829 20.3218 6.24829C16.6677 6.24829 14.2782 8.46238 14.2782 12.4742V16H10.2146V20.6261H14.2782V31.8067C15.0927 31.9347 15.9274 32 16.778 32C17.6285 32 18.4632 31.9325 19.2777 31.8067V20.6261H23.0061L23.0058 20.626Z" fill="#FEFEFE"/>
</svg>
