<svg width="32" height="32" viewBox="0 0 32 32" fill="none" xmlns="http://www.w3.org/2000/svg">
<path d="M31.5873 16.3674C31.5873 15.2797 31.4991 14.1862 31.3108 13.1162H16.2192V19.2775H24.8615C24.5028 21.2647 23.3506 23.0226 21.6633 24.1395V28.1373H26.8193C29.8471 25.3506 31.5873 21.2353 31.5873 16.3674Z" fill="#4285F4"/>
<path d="M16.2191 32C20.5344 32 24.1736 30.5831 26.825 28.1373L21.6691 24.1395C20.2346 25.1155 18.3827 25.6682 16.225 25.6682C12.0509 25.6682 8.51163 22.852 7.24175 19.0659H1.92114V23.1871C4.6373 28.5902 10.1695 32 16.2191 32Z" fill="#34A853"/>
<path d="M7.23595 19.0659C6.56573 17.0788 6.56573 14.927 7.23595 12.9399V8.8186H1.92124C-0.348096 13.3396 -0.348096 18.6661 1.92124 23.187L7.23595 19.0659Z" fill="#FBBC04"/>
<path d="M16.2191 6.33178C18.5002 6.29651 20.7049 7.15485 22.3569 8.73047L26.925 4.16238C24.0325 1.44624 20.1934 -0.0470532 16.2191 -2.04155e-05C10.1695 -2.04155e-05 4.6373 3.40987 1.92114 8.81865L7.23586 12.9399C8.49986 9.14787 12.045 6.33178 16.2191 6.33178Z" fill="#EA4335"/>
</svg>
