<svg width="18" height="18" viewBox="0 0 18 18" fill="none" xmlns="http://www.w3.org/2000/svg">
<path d="M3.75142 5.00612L2.37142 4.97507C2.2518 4.97238 2.18266 5.10836 2.25376 5.20284L8.3586 13.3922C8.41024 13.4618 8.47708 13.5187 8.55404 13.5585C8.631 13.5983 8.71603 13.62 8.80265 13.6219C8.88927 13.6239 8.9752 13.606 9.05386 13.5697C9.13253 13.5334 9.20187 13.4796 9.25658 13.4124L15.7236 5.5059C15.7989 5.41293 15.7359 5.27576 15.6163 5.27307L14.2363 5.24202C14.1488 5.24005 14.064 5.27923 14.0089 5.34586L8.84769 11.6599L3.97392 5.12008C3.92188 5.05104 3.8389 5.00809 3.75142 5.00612Z" fill="black" fill-opacity="0.85"/>
</svg>
