<svg width="14" height="22" viewBox="0 0 14 22" fill="none" xmlns="http://www.w3.org/2000/svg">
<path d="M13.6778 3.13291V1.06238C13.6778 0.882911 13.4715 0.783804 13.3322 0.893625L1.25724 10.3249C1.15464 10.4047 1.07163 10.5068 1.01452 10.6236C0.957419 10.7403 0.927734 10.8686 0.927734 10.9985C0.927734 11.1285 0.957419 11.2568 1.01452 11.3735C1.07163 11.4902 1.15464 11.5924 1.25724 11.6722L13.3322 21.1034C13.4742 21.2133 13.6778 21.1142 13.6778 20.9347V18.8642C13.6778 18.7329 13.6162 18.607 13.5144 18.5267L3.87152 10.9999L13.5144 3.47041C13.6162 3.39005 13.6778 3.26416 13.6778 3.13291V3.13291Z" fill="black" fill-opacity="0.85"/>
</svg>
