<svg width="24" height="24" viewBox="0 0 24 24" fill="none" xmlns="http://www.w3.org/2000/svg">
<path d="M22.6504 21.1775L15.6942 14.2212C16.7736 12.8257 17.3576 11.1194 17.3576 9.32478C17.3576 7.17656 16.5192 5.16228 15.0031 3.64353C13.487 2.12478 11.4674 1.28906 9.32185 1.28906C7.17631 1.28906 5.15667 2.12746 3.6406 3.64353C2.12185 5.1596 1.28613 7.17656 1.28613 9.32478C1.28613 11.4703 2.12453 13.49 3.6406 15.006C5.15667 16.5248 7.17363 17.3605 9.32185 17.3605C11.1165 17.3605 12.8201 16.7766 14.2156 15.6998L21.1718 22.6533C21.1922 22.6738 21.2165 22.6899 21.2431 22.701C21.2698 22.712 21.2983 22.7177 21.3272 22.7177C21.3561 22.7177 21.3846 22.712 21.4113 22.701C21.4379 22.6899 21.4622 22.6738 21.4826 22.6533L22.6504 21.4882C22.6708 21.4678 22.687 21.4436 22.6981 21.4169C22.7091 21.3902 22.7148 21.3617 22.7148 21.3328C22.7148 21.304 22.7091 21.2754 22.6981 21.2487C22.687 21.2221 22.6708 21.1979 22.6504 21.1775ZM13.5647 13.5676C12.429 14.7007 10.9236 15.3248 9.32185 15.3248C7.72006 15.3248 6.2147 14.7007 5.07899 13.5676C3.94595 12.4319 3.32185 10.9266 3.32185 9.32478C3.32185 7.72299 3.94595 6.21496 5.07899 5.08192C6.2147 3.94888 7.72006 3.32478 9.32185 3.32478C10.9236 3.32478 12.4317 3.94621 13.5647 5.08192C14.6977 6.21763 15.3218 7.72299 15.3218 9.32478C15.3218 10.9266 14.6977 12.4346 13.5647 13.5676Z" fill="#8C8C8C"/>
</svg>
