<svg width="20" height="20" viewBox="0 0 20 20" fill="none" xmlns="http://www.w3.org/2000/svg">
<path d="M10.8024 0.358398H9.19524C9.05239 0.358398 8.98096 0.429827 8.98096 0.572684V8.9834H0.999442C0.856585 8.9834 0.785156 9.05483 0.785156 9.19768V10.8048C0.785156 10.9477 0.856585 11.0191 0.999442 11.0191H8.98096V19.4298C8.98096 19.5727 9.05239 19.6441 9.19524 19.6441H10.8024C10.9452 19.6441 11.0167 19.5727 11.0167 19.4298V11.0191H18.9994C19.1423 11.0191 19.2137 10.9477 19.2137 10.8048V9.19768C19.2137 9.05483 19.1423 8.9834 18.9994 8.9834H11.0167V0.572684C11.0167 0.429827 10.9452 0.358398 10.8024 0.358398Z" fill="#8C8C8C"/>
</svg>
