<svg width="60" height="60" viewBox="0 0 60 60" fill="none" xmlns="http://www.w3.org/2000/svg">
<path d="M30 3.75C15.5039 3.75 3.75 15.5039 3.75 30C3.75 44.4961 15.5039 56.25 30 56.25C44.4961 56.25 56.25 44.4961 56.25 30C56.25 15.5039 44.4961 3.75 30 3.75ZM30 51.7969C17.9648 51.7969 8.20312 42.0352 8.20312 30C8.20312 17.9648 17.9648 8.20312 30 8.20312C42.0352 8.20312 51.7969 17.9648 51.7969 30C51.7969 42.0352 42.0352 51.7969 30 51.7969Z" fill="#FAAD14"/>
<path d="M27.1866 40.3125C27.1866 41.0584 27.4829 41.7738 28.0103 42.3012C28.5378 42.8287 29.2532 43.125 29.9991 43.125C30.745 43.125 31.4604 42.8287 31.9878 42.3012C32.5153 41.7738 32.8116 41.0584 32.8116 40.3125C32.8116 39.5666 32.5153 38.8512 31.9878 38.3238C31.4604 37.7963 30.745 37.5 29.9991 37.5C29.2532 37.5 28.5378 37.7963 28.0103 38.3238C27.4829 38.8512 27.1866 39.5666 27.1866 40.3125ZM28.5928 33.75H31.4053C31.6631 33.75 31.8741 33.5391 31.8741 33.2813V17.3438C31.8741 17.0859 31.6631 16.875 31.4053 16.875H28.5928C28.335 16.875 28.1241 17.0859 28.1241 17.3438V33.2813C28.1241 33.5391 28.335 33.75 28.5928 33.75Z" fill="#FAAD14"/>
</svg>
