<svg width="26" height="26" viewBox="0 0 26 26" fill="none" xmlns="http://www.w3.org/2000/svg">
<path d="M14.0672 0.144531H11.9244C11.7339 0.144531 11.6387 0.239769 11.6387 0.430246V11.6445H0.996652C0.806176 11.6445 0.710938 11.7398 0.710938 11.9302V14.0731C0.710938 14.2636 0.806176 14.3588 0.996652 14.3588H11.6387V25.5731C11.6387 25.7636 11.7339 25.8588 11.9244 25.8588H14.0672C14.2577 25.8588 14.353 25.7636 14.353 25.5731V14.3588H24.9967C25.1871 14.3588 25.2824 14.2636 25.2824 14.0731V11.9302C25.2824 11.7398 25.1871 11.6445 24.9967 11.6445H14.353V0.430246C14.353 0.239769 14.2577 0.144531 14.0672 0.144531Z" fill="white"/>
</svg>